<svg width="360" height="161" viewBox="0 0 360 161" fill="none" xmlns="http://www.w3.org/2000/svg">
<g filter="url(#filter0_f_1_44)">
<path d="M392.555 114.528C377.523 137.692 346.558 144.284 323.394 129.252C300.23 114.22 359.304 106.064 308.671 60.0913C258.037 14.119 354.667 30.3352 377.831 45.3676C400.995 60.3999 407.587 91.3643 392.555 114.528Z" fill="url(#paint0_linear_1_44)"/>
</g>
<g filter="url(#filter1_f_1_44)">
<path d="M-19.7285 32.466C1.73177 15.0878 33.2166 18.397 50.5948 39.8573C67.973 61.3176 9.27298 50.8007 43.2035 110.181C77.134 169.56 -9.74161 124.25 -27.1198 102.789C-44.498 81.329 -41.1888 49.8442 -19.7285 32.466Z" fill="url(#paint1_linear_1_44)"/>
</g>
<defs>
<filter id="filter0_f_1_44" x="273.193" y="8.84924" width="148.425" height="149.466" filterUnits="userSpaceOnUse" color-interpolation-filters="sRGB">
<feFlood flood-opacity="0" result="BackgroundImageFix"/>
<feBlend mode="normal" in="SourceGraphic" in2="BackgroundImageFix" result="shape"/>
<feGaussianBlur stdDeviation="10.5" result="effect1_foregroundBlur_1_44"/>
</filter>
<filter id="filter1_f_1_44" x="-59.2646" y="0.321655" width="134.153" height="160.288" filterUnits="userSpaceOnUse" color-interpolation-filters="sRGB">
<feFlood flood-opacity="0" result="BackgroundImageFix"/>
<feBlend mode="normal" in="SourceGraphic" in2="BackgroundImageFix" result="shape"/>
<feGaussianBlur stdDeviation="10.5" result="effect1_foregroundBlur_1_44"/>
</filter>
<linearGradient id="paint0_linear_1_44" x1="367.516" y1="38.6732" x2="311" y2="131.26" gradientUnits="userSpaceOnUse">
<stop stop-color="#8EC63F"/>
<stop offset="1" stop-color="#8EC63F" stop-opacity="0"/>
</linearGradient>
<linearGradient id="paint1_linear_1_44" x1="-2.5216" y1="39.9542" x2="37.5112" y2="107.078" gradientUnits="userSpaceOnUse">
<stop stop-color="#1180C5"/>
<stop offset="1" stop-color="#1180C5" stop-opacity="0"/>
</linearGradient>
</defs>
</svg>
